<?xml version="1.0" encoding="utf-8"?>
<!-- Generator: Adobe Illustrator 25.2.3, SVG Export Plug-In . SVG Version: 6.00 Build 0)  -->
<svg version="1.1" id="Layer_1" xmlns="http://www.w3.org/2000/svg" xmlns:xlink="http://www.w3.org/1999/xlink" x="0px" y="0px"
	 viewBox="0 0 200 200" style="enable-background:new 0 0 200 200;" xml:space="preserve">
<path d="M114.14,100l67.41-67.41c3.91-3.91,3.91-10.24,0-14.14c-3.91-3.91-10.24-3.91-14.14,0L100,85.86L32.37,18.23
	c-3.91-3.91-10.24-3.91-14.14,0c-3.9,3.91-3.9,10.24,0,14.14L85.86,100l-67.41,67.41c-3.91,3.91-3.91,10.24,0,14.14
	c1.95,1.95,4.51,2.93,7.07,2.93s5.12-0.98,7.07-2.93L100,114.14l67.19,67.19c1.95,1.95,4.51,2.93,7.07,2.93s5.12-0.98,7.07-2.93
	c3.91-3.91,3.91-10.24,0-14.14L114.14,100z"/>
</svg>
